HIERARCHY
ROOT Pelvis
{
	OFFSET 0.000000 0.000000 0.000000
	CHANNELS 6 Xposition Yposition Zposition Xrotation Yrotation Zrotation
	JOINT LeftUpLeg_virtual
	{
		OFFSET 0.000000 0.000000 0.000000
		CHANNELS 3 Xrotation Yrotation Zrotation
		JOINT LeftUpLeg
		{
			OFFSET 18.735201 -5.666702 -4.541200
			CHANNELS 3 Xrotation Yrotation Zrotation
			JOINT LeftLeg
			{
				OFFSET -0.021200 -31.938179 0.493100
				CHANNELS 3 Xrotation Yrotation Zrotation
				JOINT LeftFoot
				{
					OFFSET 0.021200 -31.938179 -4.336299
					CHANNELS 3 Xrotation Yrotation Zrotation
					JOINT LeftToeBase
					{
						OFFSET 0.943001 -26.722000 15.023500
						CHANNELS 3 Xrotation Yrotation Zrotation
						End Site
						{
							OFFSET 0 0 0
						}
					}
				}
			}
		}
	}
	JOINT RightUpLeg_virtual
	{
		OFFSET 0.000000 0.000000 0.000000
		CHANNELS 3 Xrotation Yrotation Zrotation
		JOINT RightUpLeg
		{
			OFFSET -18.735201 -5.666702 -4.541200
			CHANNELS 3 Xrotation Yrotation Zrotation
			JOINT RightLeg
			{
				OFFSET 0.018946 -31.938133 0.493100
				CHANNELS 3 Xrotation Yrotation Zrotation
				JOINT RightFoot
				{
					OFFSET -0.018946 -31.938126 -4.336299
					CHANNELS 3 Xrotation Yrotation Zrotation
					JOINT RightToeBase
					{
						OFFSET -0.943001 -26.722004 15.023500
						CHANNELS 3 Xrotation Yrotation Zrotation
						End Site
						{
							OFFSET 0 0 0
						}
					}
				}
			}
		}
	}
	JOINT Hips_virtual
	{
		OFFSET 0.000000 0.000000 0.000000
		CHANNELS 3 Xrotation Yrotation Zrotation
		JOINT Hips
		{
			OFFSET -0.000000 -0.000000 -0.000000
			CHANNELS 3 Xrotation Yrotation Zrotation
			JOINT Spine
			{
				OFFSET 0.000000 10.199997 -0.299500
				CHANNELS 3 Xrotation Yrotation Zrotation
				JOINT Spine1
				{
					OFFSET 0.000000 11.900002 -1.516600
					CHANNELS 3 Xrotation Yrotation Zrotation
					JOINT Spine2
					{
						OFFSET 0.000000 13.600006 -2.842500
						CHANNELS 3 Xrotation Yrotation Zrotation
						JOINT Neck_virtual
						{
							OFFSET 0.000000 0.000000 0.000000
							CHANNELS 3 Xrotation Yrotation Zrotation
							JOINT Neck
							{
								OFFSET 0.000000 9.624100 -2.890100
								CHANNELS 3 Xrotation Yrotation Zrotation
								JOINT Head
								{
									OFFSET 0.000000 14.068802 -1.351900
									CHANNELS 3 Xrotation Yrotation Zrotation
									End Site
									{
										OFFSET 0 0 0
									}
								}
							}
						}
						JOINT LeftShoulder_virtual
						{
							OFFSET 0.000000 0.000000 0.000000
							CHANNELS 3 Xrotation Yrotation Zrotation
							JOINT LeftShoulder
							{
								OFFSET 15.263000 10.923401 -0.547700
								CHANNELS 3 Xrotation Yrotation Zrotation
								JOINT LeftArm
								{
									OFFSET 25.438599 -2.830597 -13.032500
									CHANNELS 3 Xrotation Yrotation Zrotation
									JOINT LeftForeArm
									{
										OFFSET 29.960503 0.000000 0.000000
										CHANNELS 3 Xrotation Yrotation Zrotation
										JOINT LeftHand
										{
											OFFSET 27.849251 0.000000 0.000000
											CHANNELS 3 Xrotation Yrotation Zrotation
											End Site
											{
												OFFSET 0 0 0
											}
										}
									}
								}
							}
						}
						JOINT RightShoulder_virtual
						{
							OFFSET 0.000000 0.000000 0.000000
							CHANNELS 3 Xrotation Yrotation Zrotation
							JOINT RightShoulder
							{
								OFFSET -15.263000 10.923401 -0.547700
								CHANNELS 3 Xrotation Yrotation Zrotation
								JOINT RightArm
								{
									OFFSET -25.438599 -2.830597 -13.032500
									CHANNELS 3 Xrotation Yrotation Zrotation
									JOINT RightForeArm
									{
										OFFSET -29.960503 0.000000 0.000000
										CHANNELS 3 Xrotation Yrotation Zrotation
										JOINT RightHand
										{
											OFFSET -27.849251 0.000000 0.000000
											CHANNELS 3 Xrotation Yrotation Zrotation
											End Site
											{
												OFFSET 0 0 0
											}
										}
									}
								}
							}
						}
					}
				}
			}
		}
	}
}
MOTION
Frames: 10
Frame Time: 0.03333333
-12.650026 91.171036 6.409899 0.000000 0.000000 0.000000 -9.330190 -1.744113 8.133272 -2.449780 9.146654 -4.274568 13.825375 4.976615 -5.847122 8.061320 -2.233889 -3.364560 0.000000 0.000000 0.000000 -9.837257 -0.866890 8.491858 -16.741014 -6.960781 -32.175990 42.404157 0.973264 3.365591 -14.802738 -0.482753 3.280068 0.000000 0.000000 0.000000 -9.466624 -1.249406 8.737706 -0.655075 -0.171700 -0.183643 6.846329 1.087226 1.355059 4.740462 3.202396 -4.125677 0.000000 0.000000 0.000000 5.481882 5.113265 -4.424673 -5.094868 0.827828 3.209843 0.000000 0.000000 0.000000 3.115646 4.544732 -4.854876 -2.247362 -5.010093 -4.146950 7.769751 -14.830472 -74.936164 -6.365423 -39.618352 5.012091 0.000000 0.000000 0.000000 4.334328 5.903642 -4.964909 11.234094 -1.883712 7.349529 0.193769 -4.604123 76.586583 10.811256 64.913865 -4.693300 0.000000 0.000000 0.000000 
-12.780718 91.317764 6.535749 0.000000 0.000000 0.000000 -9.335293 -1.924494 8.037394 -3.017400 9.192208 -4.001994 14.756226 5.162961 -6.020797 8.970889 -1.368761 -3.206227 0.000000 0.000000 0.000000 -9.672044 -0.948018 8.238763 -17.041134 -7.223724 -31.869772 42.185263 0.535272 3.265651 -14.526638 -0.940077 2.874000 0.000000 0.000000 0.000000 -9.546706 -1.276981 8.611620 -0.716458 -0.069888 -0.148907 7.217712 1.419334 1.785008 4.966579 3.070769 -3.751866 0.000000 0.000000 0.000000 5.606960 4.970069 -4.280900 -5.254629 0.700744 3.025470 0.000000 0.000000 0.000000 3.576325 4.399069 -4.435955 -1.605282 -6.373990 -3.170179 8.958927 -17.933215 -73.494249 -5.825287 -43.050266 5.906958 0.000000 0.000000 0.000000 5.003006 5.830646 -4.711846 11.272502 -1.079397 6.879256 0.127336 -1.084383 76.768792 11.181535 65.458825 -5.976328 0.000000 0.000000 0.000000 
-12.963928 91.756454 6.849783 0.000000 0.000000 0.000000 -9.277583 -2.249685 7.752170 -3.874139 8.841314 -3.611565 15.991565 5.107314 -6.054949 9.162087 -0.637360 -2.831570 0.000000 0.000000 0.000000 -9.425517 -1.109901 7.784210 -16.415591 -7.759753 -30.780316 40.835413 -0.121319 2.699046 -13.272616 -1.890035 2.655055 0.000000 0.000000 0.000000 -9.677917 -1.343850 8.059592 -0.766610 -0.013810 -0.118953 6.569606 1.685387 1.669948 6.051977 2.690101 -2.946415 0.000000 0.000000 0.000000 6.752069 4.659444 -3.710864 -5.213046 0.469201 2.657354 0.000000 0.000000 0.000000 4.769947 4.088550 -3.590803 -1.143445 -8.905712 -0.395257 16.067953 -23.527828 -67.381749 -5.786166 -53.721333 6.302192 0.000000 0.000000 0.000000 6.137491 5.564514 -3.952630 11.881412 0.628482 5.605613 0.349817 4.504077 73.703711 11.885840 66.149959 -8.350651 0.000000 0.000000 0.000000 
-13.137379 92.386185 7.207426 0.000000 0.000000 0.000000 -9.068887 -2.508558 7.282430 -4.779006 8.024259 -3.069662 17.097787 4.727571 -5.916061 8.784073 -0.337735 -2.615454 0.000000 0.000000 0.000000 -9.058028 -1.252659 7.180705 -15.806666 -8.144511 -29.251678 39.541526 -0.632955 2.064270 -11.073804 -2.794652 3.058834 0.000000 0.000000 0.000000 -9.669875 -1.489826 7.184950 -0.792427 -0.023947 -0.128162 5.041658 1.835149 1.049134 7.680491 2.094590 -1.815280 0.000000 0.000000 0.000000 8.445007 4.177536 -2.776631 -4.924945 0.178212 2.170164 0.000000 0.000000 0.000000 6.312705 3.627719 -2.507165 -0.884123 -12.180223 2.980333 27.935412 -28.672984 -57.327902 -6.013610 -68.601812 6.742103 0.000000 0.000000 0.000000 7.418033 5.123157 -2.858982 12.908415 2.985100 4.064395 1.216107 10.538616 67.848005 13.426595 66.840095 -12.118269 0.000000 0.000000 0.000000 
-13.214251 93.108414 7.513096 0.000000 0.000000 0.000000 -8.733337 -2.589766 6.630486 -5.813074 7.098284 -2.230018 18.094472 4.115554 -5.781346 8.858749 -0.458447 -2.836310 0.000000 0.000000 0.000000 -8.636702 -1.329119 6.442440 -16.589503 -7.895346 -27.934987 40.033286 -0.658652 1.782409 -7.427407 -3.019248 4.164021 0.000000 0.000000 0.000000 -9.402484 -1.692098 6.135020 -0.777159 -0.086771 -0.160289 3.070253 1.846203 -0.041092 9.319092 1.308742 -0.472547 0.000000 0.000000 0.000000 10.124372 3.540572 -1.579619 -4.439102 -0.158791 1.661368 0.000000 0.000000 0.000000 7.945184 3.022316 -1.302775 -0.819351 -15.425427 5.715927 41.189661 -31.642897 -45.696991 -4.928887 -83.581981 9.118736 0.000000 0.000000 0.000000 8.405650 4.503857 -1.572420 14.298876 5.747986 2.980946 2.791544 15.941356 60.273462 16.140217 67.306125 -17.453423 0.000000 0.000000 0.000000 
-13.160908 93.835014 7.606819 0.000000 0.000000 0.000000 -8.155706 -2.344490 5.769326 -7.277053 6.265658 -0.976882 19.207091 3.469324 -5.818615 9.637361 -0.692041 -3.414867 0.000000 0.000000 0.000000 -8.130231 -1.249566 5.587999 -19.951765 -6.513407 -26.937139 43.668821 -0.057579 1.967662 -2.457984 -2.209513 5.495831 0.000000 0.000000 0.000000 -8.755771 -1.988362 5.175057 -0.765579 -0.143683 -0.167257 1.403930 1.737839 -1.445261 10.630832 0.379910 0.900538 0.000000 0.000000 0.000000 11.166544 2.797442 -0.290333 -3.863774 -0.481408 1.218275 0.000000 0.000000 0.000000 9.327224 2.323717 -0.102680 -1.082493 -17.971737 6.858879 52.059900 -32.712269 -35.111916 165.062231 -85.417594 -179.020501 0.000000 0.000000 0.000000 8.959619 3.754293 -0.300121 15.813269 8.862079 2.912503 5.201397 19.766036 51.916490 20.454999 68.109560 -24.543298 0.000000 0.000000 0.000000 
-13.078770 94.523926 7.538427 0.000000 0.000000 0.000000 -7.297693 -1.671993 4.704013 -8.926673 5.352907 0.562949 20.134942 2.870334 -5.931037 10.548423 -1.006736 -4.296119 0.000000 0.000000 0.000000 -7.419335 -0.745983 4.653886 -25.924751 -3.866928 -25.817528 50.394416 1.011947 2.217686 2.864820 -0.578249 6.199070 0.000000 0.000000 0.000000 -7.751583 -2.036490 4.339003 -0.772521 -0.187193 -0.123969 0.605361 1.644210 -2.739492 11.488798 -0.547962 2.134305 0.000000 0.000000 0.000000 11.397307 2.006579 0.866108 -3.144250 -0.747556 0.854173 0.000000 0.000000 0.000000 10.369660 1.634733 0.914998 -1.573923 -19.488954 5.913928 58.998983 -33.273140 -26.311209 165.220145 -79.531529 -176.866150 0.000000 0.000000 0.000000 9.112842 2.948064 0.752711 17.122246 12.022936 3.489612 7.996167 21.494687 43.273948 26.884311 69.610139 -33.689935 0.000000 0.000000 0.000000 
-13.182613 95.261002 7.302443 0.000000 0.000000 0.000000 -6.148201 -0.815002 3.455232 -10.315544 4.292806 2.207832 20.123477 2.320204 -6.027090 11.137009 -1.435019 -5.427265 0.000000 0.000000 0.000000 -6.506063 -0.018271 3.587227 -33.412452 -0.433167 -23.943336 58.667384 2.150063 2.043787 6.859349 1.144830 5.612144 0.000000 0.000000 0.000000 -6.445704 -1.675199 3.499302 -0.782438 -0.211034 -0.063053 1.079061 1.637517 -3.558078 12.015846 -1.313794 3.086082 0.000000 0.000000 0.000000 11.015759 1.299060 1.687161 -2.262272 -0.935120 0.563138 0.000000 0.000000 0.000000 11.205488 1.057290 1.679818 -2.205320 -19.646921 3.151564 62.169495 -33.289505 -18.727088 163.459759 -77.270681 -177.011907 0.000000 0.000000 0.000000 8.979978 2.200592 1.483834 17.933797 14.604469 4.138784 10.358244 21.049431 35.071543 37.939980 72.201035 -47.161807 0.000000 0.000000 0.000000 
-13.570681 96.015602 6.808098 0.000000 0.000000 0.000000 -4.787865 0.092547 2.061267 -11.386142 3.308240 3.816817 18.964912 2.098171 -5.993302 10.827767 -1.612813 -6.300861 0.000000 0.000000 0.000000 -5.272034 0.814346 2.339281 -41.264383 2.417578 -21.190129 66.676416 2.759194 1.459898 7.376497 2.277575 3.922033 0.000000 0.000000 0.000000 -4.935784 -0.923666 2.481849 -0.785298 -0.203719 -0.016913 2.548945 1.657928 -3.577357 12.447987 -1.774419 3.639800 0.000000 0.000000 0.000000 10.309179 0.844900 2.093555 -1.081603 -0.984092 0.327539 0.000000 0.000000 0.000000 11.893388 0.745493 2.151926 -2.935537 -18.496390 -0.684685 62.161395 -31.840761 -12.321307 164.636929 -75.077514 -175.297215 0.000000 0.000000 0.000000 8.983335 1.698349 1.811636 18.147065 16.301105 4.518600 11.299120 18.924146 28.409824 58.295186 75.004151 -69.577115 0.000000 0.000000 0.000000 
-14.240679 96.600769 6.188774 0.000000 0.000000 0.000000 -3.320841 0.797238 0.612718 -12.782363 2.656243 5.252801 17.955761 2.220996 -5.780115 9.512930 -1.155758 -6.343339 0.000000 0.000000 0.000000 -3.830852 1.526544 0.930931 -47.854860 3.379230 -18.358065 72.990175 2.612651 0.918549 3.669599 2.588419 1.700573 0.000000 0.000000 0.000000 -3.337218 0.074875 1.209588 -0.785265 -0.208912 -0.018778 4.391644 1.768822 -2.753979 13.079587 -1.835688 3.853043 0.000000 0.000000 0.000000 9.931860 0.776564 2.154686 0.555346 -0.871426 0.084447 0.000000 0.000000 0.000000 12.642566 0.797591 2.298127 -3.642017 -16.411184 -4.578438 59.249220 -28.451438 -7.352324 168.616580 -69.066279 -172.262507 0.000000 0.000000 0.000000 9.232851 1.520789 1.856668 17.670379 16.978672 4.508379 10.357126 16.334343 24.012809 87.685538 75.426284 -100.597779 0.000000 0.000000 0.000000 
